<svg xmlns="http://www.w3.org/2000/svg" width="20" height="20" viewBox="0 0 20 20" fill="none">
  <path d="M7 12.25C6.65 12.25 6.35417 12.1292 6.1125 11.8875C5.87083 11.6458 5.75 11.35 5.75 11C5.75 10.65 5.87083 10.3542 6.1125 10.1125C6.35417 9.87083 6.65 9.75 7 9.75C7.35 9.75 7.64583 9.87083 7.8875 10.1125C8.12917 10.3542 8.25 10.65 8.25 11C8.25 11.35 8.12917 11.6458 7.8875 11.8875C7.64583 12.1292 7.35 12.25 7 12.25ZM13 12.25C12.65 12.25 12.3542 12.1292 12.1125 11.8875C11.8708 11.6458 11.75 11.35 11.75 11C11.75 10.65 11.8708 10.3542 12.1125 10.1125C12.3542 9.87083 12.65 9.75 13 9.75C13.35 9.75 13.6458 9.87083 13.8875 10.1125C14.1292 10.3542 14.25 10.65 14.25 11C14.25 11.35 14.1292 11.6458 13.8875 11.8875C13.6458 12.1292 13.35 12.25 13 12.25ZM10 18C12.2333 18 14.125 17.225 15.675 15.675C17.225 14.125 18 12.2333 18 10C18 9.6 17.975 9.2125 17.925 8.8375C17.875 8.4625 17.7833 8.1 17.65 7.75C17.3 7.83333 16.95 7.89583 16.6 7.9375C16.25 7.97917 15.8833 8 15.5 8C13.9833 8 12.55 7.675 11.2 7.025C9.85 6.375 8.7 5.46667 7.75 4.3C7.21667 5.6 6.45417 6.72917 5.4625 7.6875C4.47083 8.64583 3.31667 9.36667 2 9.85V10C2 12.2333 2.775 14.125 4.325 15.675C5.875 17.225 7.76667 18 10 18ZM10 20C8.61667 20 7.31667 19.7375 6.1 19.2125C4.88333 18.6875 3.825 17.975 2.925 17.075C2.025 16.175 1.3125 15.1167 0.7875 13.9C0.2625 12.6833 0 11.3833 0 10C0 8.61667 0.2625 7.31667 0.7875 6.1C1.3125 4.88333 2.025 3.825 2.925 2.925C3.825 2.025 4.88333 1.3125 6.1 0.7875C7.31667 0.2625 8.61667 0 10 0C11.3833 0 12.6833 0.2625 13.9 0.7875C15.1167 1.3125 16.175 2.025 17.075 2.925C17.975 3.825 18.6875 4.88333 19.2125 6.1C19.7375 7.31667 20 8.61667 20 10C20 11.3833 19.7375 12.6833 19.2125 13.9C18.6875 15.1167 17.975 16.175 17.075 17.075C16.175 17.975 15.1167 18.6875 13.9 19.2125C12.6833 19.7375 11.3833 20 10 20ZM8.65 2.125C9.35 3.29167 10.3 4.22917 11.5 4.9375C12.7 5.64583 14.0333 6 15.5 6C15.7333 6 15.9583 5.9875 16.175 5.9625C16.3917 5.9375 16.6167 5.90833 16.85 5.875C16.15 4.70833 15.2 3.77083 14 3.0625C12.8 2.35417 11.4667 2 10 2C9.76667 2 9.54167 2.0125 9.325 2.0375C9.10833 2.0625 8.88333 2.09167 8.65 2.125ZM2.425 7.475C3.275 6.99167 4.01667 6.36667 4.65 5.6C5.28333 4.83333 5.75833 3.975 6.075 3.025C5.225 3.50833 4.48333 4.13333 3.85 4.9C3.21667 5.66667 2.74167 6.525 2.425 7.475Z" 
  fill="#FD576B"/>
</svg>