<svg xmlns="http://www.w3.org/2000/svg" width="74" height="74" fill="none" class="s-BhKJMyTvHb45" viewBox="0 0 74 74"><path fill="url(#paint0_angular_5_28)" d="M21.9917 1.46817C23.5249 0.439974 25.3034 0.173104 26.9395 0.571377C28.5655 0.96694 30.0493 2.01816 31.0134 3.63293C31.0299 3.65596 31.0439 3.68034 31.0566 3.70608C32.0017 5.33304 32.2469 7.21332 31.876 8.94459C31.505 10.6786 30.5193 12.2608 29.0051 13.289C28.9835 13.3066 28.9606 13.3215 28.9365 13.3351C27.4108 14.3429 25.6476 14.6044 24.0242 14.2088C22.3867 13.8106 20.8929 12.7471 19.9287 11.1121C18.9645 9.47697 18.7143 7.58044 19.0877 5.83698C19.4612 4.09081 20.4584 2.49772 21.9917 1.46952V1.46817ZM73.3351 44.8027C73.7899 46.6721 73.4914 48.5605 72.6415 50.1035C71.7904 51.6465 70.388 52.844 68.6362 53.3303C66.8832 53.8153 65.1124 53.497 63.6655 52.5907C62.2186 51.6831 61.0957 50.1875 60.6396 48.3194C60.1848 46.45 60.4834 44.5616 61.3332 43.0186C62.1843 41.4756 63.5867 40.2781 65.3385 39.7918C67.0915 39.3068 68.8623 39.6251 70.3092 40.5314C71.7561 41.439 72.8791 42.9346 73.3351 44.8027ZM71.8069 49.5806C72.5323 48.2652 72.7863 46.6545 72.3976 45.0614C72.0102 43.4683 71.0524 42.1936 69.8202 41.4214C68.5867 40.6479 67.0763 40.377 65.5824 40.7915C64.0885 41.2047 62.8931 42.2261 62.1691 43.5401C61.4437 44.8555 61.1897 46.4662 61.5784 48.0593C61.9658 49.6524 62.9236 50.9272 64.1558 51.6993C65.3893 52.4728 66.8997 52.7438 68.3936 52.3292C69.8875 51.9161 71.0828 50.8946 71.8069 49.5806ZM59.2042 48.7163C59.4176 49.5901 59.7491 50.3975 60.1772 51.1331C60.6269 51.9066 61.1846 52.6015 61.8223 53.2098C62.1691 53.5417 62.3914 53.8031 62.5286 54.1418C62.6683 54.4859 62.6988 54.8503 62.6581 55.3745C62.338 59.5036 60.7921 63.1639 58.3251 66.0832C55.8277 69.0404 52.3864 71.2323 48.3201 72.3756C48.3125 72.3783 48.3049 72.3797 48.2973 72.3811L48.2579 72.3932C47.1349 72.7048 46.0539 72.5341 45.1812 72.0166C44.3021 71.4951 43.6378 70.6213 43.3558 69.5295C43.352 69.5146 43.3469 69.4943 43.3405 69.4685C43.3215 69.3886 43.3443 69.4902 43.3304 69.4319C43.0712 68.3252 43.2516 67.2076 43.7864 66.285C44.3161 65.372 45.1914 64.6554 46.3245 64.3411C46.3956 64.3208 46.3169 64.3424 46.3651 64.3289C46.3753 64.3262 46.3855 64.3235 46.3956 64.3221C49.4151 63.4863 51.7995 61.4787 53.2426 58.9021C54.6831 56.3282 55.1836 53.1854 54.4342 50.0724L54.4265 50.0398L54.4189 50.0073C53.6529 46.8997 51.7817 44.4125 49.3491 42.9116C46.9139 41.4092 43.9147 40.8945 40.8952 41.7303L40.8634 41.7384V41.7398C40.8037 41.7574 40.9003 41.7289 40.8228 41.7506C39.6897 42.0649 38.5997 41.8929 37.7207 41.37C36.8327 40.8416 36.1645 39.9584 35.8863 38.8557C35.8711 38.7974 35.9003 38.9085 35.8787 38.8191C35.8736 38.7988 35.8686 38.7785 35.8647 38.7582C35.6132 37.6595 35.7949 36.5514 36.3246 35.6397C36.8505 34.7334 37.7181 34.0236 38.8411 33.712C38.8614 33.7066 38.8817 33.7012 38.9046 33.6944V33.693C42.9772 32.5822 46.9825 32.7123 50.5152 33.9992C54.0022 35.2699 57.023 37.6649 59.1876 41.1072C59.4633 41.5461 59.6043 41.8807 59.6386 42.2519C59.6729 42.6203 59.5992 42.9631 59.4481 43.4304C59.1673 44.296 58.9971 45.1928 58.9577 46.0991C58.9196 46.9634 58.9984 47.8412 59.2105 48.715L59.2042 48.7163ZM59.3528 51.6749C58.8752 50.854 58.5042 49.9518 58.2667 48.9751C58.0291 47.9984 57.9402 47.0176 57.9834 46.0517C58.0279 45.0384 58.2159 44.0468 58.5233 43.0945C58.6313 42.7612 58.6859 42.5363 58.6681 42.3535C58.6516 42.1733 58.5601 41.9741 58.3759 41.6829C56.3345 38.4371 53.4852 36.1789 50.1977 34.98C46.8428 33.7581 43.028 33.6375 39.1383 34.6982V34.6969L39.1333 34.6982C39.1167 34.7023 39.099 34.7077 39.0799 34.7131C38.2097 34.9542 37.5428 35.4948 37.1439 36.1829C36.7489 36.8643 36.613 37.6934 36.801 38.517L36.8111 38.5617C36.8276 38.6295 36.7984 38.5103 36.8187 38.5902C37.0271 39.4152 37.525 40.0749 38.1869 40.4691C38.8563 40.8674 39.696 40.9961 40.5751 40.7522C40.6284 40.7373 40.5242 40.7658 40.6081 40.7414V40.7427L40.6462 40.7319C43.9236 39.8243 47.1819 40.3851 49.8293 42.0188C52.4791 43.6539 54.5167 46.3619 55.3513 49.7459L55.3602 49.7825L55.3691 49.819C56.1846 53.2084 55.6409 56.6317 54.0708 59.4345C52.5033 62.2346 49.9131 64.4156 46.6357 65.3232C46.623 65.3273 46.6103 65.3314 46.5976 65.3354C46.5252 65.3544 46.6116 65.33 46.5646 65.3436C45.6855 65.5874 45.011 66.1347 44.6083 66.8296C44.2107 67.5164 44.076 68.3523 44.2704 69.1827C44.2894 69.2626 44.2628 69.1529 44.2767 69.2111L44.2882 69.2558V69.2572C44.499 70.0727 44.9945 70.7256 45.6512 71.1144C46.3143 71.5087 47.1438 71.6346 48.014 71.3935L48.0458 71.3854C48.0546 71.3827 48.0635 71.38 48.0724 71.3772C51.952 70.2854 55.2306 68.2005 57.6036 65.3923C59.9295 62.6396 61.3866 59.1866 61.6902 55.2905C61.7181 54.937 61.7067 54.7162 61.6406 54.5522C61.572 54.3829 61.4221 54.2136 61.177 53.9806C60.4719 53.3073 59.8546 52.5365 59.3541 51.6776L59.3528 51.6749ZM3.4769 72.228C1.96904 71.1591 1.00868 69.5403 0.677133 67.7847C0.345582 66.0304 0.640294 64.1406 1.6413 62.5326C2.64357 60.9246 4.1616 59.9005 5.80919 59.5456C7.45424 59.192 9.22633 59.5063 10.7342 60.5738C12.242 61.6426 13.2024 63.2614 13.5352 65.0184C13.8668 66.7727 13.5721 68.6625 12.5711 70.2705C11.5688 71.8785 10.0508 72.9026 8.40443 73.2562C6.75938 73.6097 4.9873 73.2955 3.47944 72.228H3.47817H3.4769ZM1.62606 67.5815C1.90679 69.0662 2.71725 70.4371 3.98883 71.3488C4.00535 71.3596 4.02186 71.3705 4.03711 71.3827C5.31885 72.2795 6.81909 72.5436 8.21135 72.2442C9.60361 71.9449 10.8892 71.0806 11.7441 69.7245C11.7542 69.7069 11.7644 69.6893 11.7758 69.6731C12.6168 68.3062 12.8645 66.7063 12.5838 65.2216C12.3005 63.7274 11.4824 62.3484 10.1968 61.438C8.91002 60.5263 7.39962 60.2581 5.9972 60.5602C4.59604 60.8623 3.30287 61.7347 2.44922 63.1056C1.5943 64.4779 1.34278 66.0886 1.62606 67.5842V67.5815ZM11.5548 59.257C10.8485 58.7571 10.0965 58.3914 9.32033 58.1489C8.49971 57.8929 7.64987 57.7709 6.79368 57.7709C6.32621 57.7709 5.99719 57.733 5.6847 57.5799C5.36712 57.4242 5.1156 57.1735 4.81708 56.7522C2.47335 53.4496 1.33515 49.624 1.34532 45.6954C1.35548 41.7168 2.54576 37.6365 4.85646 33.8935H4.85519C4.86535 33.8759 4.87805 33.8556 4.8933 33.8312C5.53607 32.8003 6.44816 32.1569 7.42248 31.9211C8.40443 31.6841 9.44609 31.8615 10.3391 32.4738C10.3531 32.4833 10.3683 32.4942 10.3874 32.5077C10.4357 32.5416 10.3963 32.5131 10.4166 32.528C10.428 32.5362 10.4395 32.5456 10.4509 32.5551C11.3198 33.1959 11.8724 34.1455 12.0477 35.1967C12.2243 36.2534 12.021 37.4089 11.3732 38.4493C11.3401 38.5021 11.3706 38.4547 11.3503 38.4872C11.3465 38.4926 11.3427 38.4981 11.3389 38.5035L11.3325 38.5143C9.60615 41.286 9.08532 44.4789 9.62393 47.424C10.1613 50.365 11.7542 53.0608 14.258 54.8462L14.3139 54.8855C16.8291 56.6547 19.7775 57.1762 22.529 56.5626C25.2818 55.9489 27.8376 54.1987 29.564 51.427L29.5843 51.3945L29.5932 51.3796C29.6059 51.3593 29.5945 51.3769 29.6047 51.3606C30.2525 50.3203 31.1722 49.6714 32.1554 49.4357C33.145 49.1972 34.1956 49.3801 35.0924 50.0033C35.1318 50.0304 35.0987 50.0073 35.1229 50.0236C35.1407 50.0358 35.1572 50.048 35.1712 50.0588C36.0477 50.6996 36.6066 51.656 36.7832 52.7126C36.9572 53.7598 36.7552 54.9045 36.1137 55.9367C36.0998 55.9584 36.087 55.9801 36.0743 55.9977C36.0705 56.0031 36.0667 56.0099 36.0629 56.0153C33.7255 59.7298 30.6654 62.4757 27.2355 64.0282C23.8425 65.563 20.0951 65.9288 16.3312 64.906C15.8535 64.7759 15.5398 64.6269 15.2794 64.3722C15.024 64.123 14.864 63.8155 14.6836 63.3576C14.352 62.5164 13.9176 61.7279 13.3777 61.0208C12.8658 60.3502 12.2586 59.7542 11.5535 59.2543L11.5548 59.257ZM9.58963 57.1573C10.4623 57.4296 11.3033 57.8387 12.0896 58.3954C12.8772 58.9536 13.5568 59.6214 14.1297 60.3719C14.728 61.1549 15.2095 62.0287 15.5766 62.9593C15.7036 63.2831 15.8053 63.489 15.9336 63.6136C16.0568 63.7342 16.2499 63.8168 16.5713 63.9035C20.1256 64.8694 23.6621 64.5253 26.8595 63.0785C30.1153 61.6047 33.0281 58.9861 35.2601 55.4396C35.2639 55.4314 35.269 55.4247 35.274 55.4165C35.2855 55.3989 35.2956 55.3813 35.3058 55.3678C35.8025 54.5699 35.96 53.6907 35.8279 52.8928C35.6971 52.1044 35.2804 51.3932 34.6262 50.915L34.5894 50.8879C34.5487 50.8594 34.5894 50.8865 34.5665 50.8716C33.8945 50.4056 33.1094 50.2688 32.3701 50.4462C31.6232 50.6251 30.9182 51.1263 30.4151 51.9337L30.4024 51.954L30.3948 51.9675L30.3745 52.0001C28.5008 55.0088 25.7226 56.9094 22.7285 57.5759C19.7318 58.2437 16.5192 57.6761 13.7804 55.7484L13.7245 55.7091L13.722 55.7078C10.9933 53.7638 9.25681 50.8256 8.6712 47.6204C8.08686 44.4193 8.65215 40.9527 10.5246 37.9454L10.5322 37.9332C10.536 37.925 10.5411 37.9183 10.5462 37.9101C10.5805 37.8559 10.5474 37.9101 10.5652 37.8803C11.067 37.0743 11.2271 36.1856 11.0924 35.381C10.9603 34.5953 10.55 33.8868 9.90467 33.4086C9.89451 33.4018 9.88435 33.3964 9.87418 33.3882C9.83607 33.3612 9.88308 33.3937 9.85259 33.372L9.81575 33.3463C9.14757 32.8884 8.36887 32.7543 7.6359 32.9304C6.89658 33.1092 6.19917 33.605 5.70248 34.4029C5.69359 34.4164 5.68343 34.4327 5.672 34.453H5.67073L5.66818 34.4571C3.46038 38.0321 2.32346 41.9172 2.31329 45.6968C2.30313 49.4031 3.37781 53.012 5.5907 56.1304C5.78886 56.4109 5.93622 56.5666 6.08993 56.6425C6.24999 56.7211 6.46594 56.74 6.79241 56.74C7.73879 56.74 8.68009 56.8742 9.58836 57.1586L9.58963 57.1573ZM26.7274 1.5779C25.3313 1.23787 23.8158 1.46546 22.5087 2.34193C21.2015 3.2184 20.3517 4.57578 20.0329 6.06185C19.714 7.54928 19.9274 9.16676 20.7493 10.5607C21.5712 11.9547 22.8441 12.8609 24.2376 13.201C25.6324 13.541 27.1491 13.3134 28.4563 12.4369C29.7634 11.5605 30.6133 10.2031 30.9321 8.717C31.251 7.22958 31.0376 5.6121 30.2157 4.21815C29.3938 2.82419 28.1209 1.91792 26.7274 1.5779ZM29.7609 14.6505C30.4774 14.1709 31.0985 13.5898 31.627 12.9327C32.1821 12.2419 32.6343 11.4656 32.9875 10.6325C33.178 10.18 33.3457 9.87525 33.6087 9.63276C33.8716 9.38892 34.1892 9.24804 34.6732 9.13018C38.4613 8.209 42.1985 8.67366 45.5521 10.2979C48.9515 11.9452 51.952 14.7805 54.2017 18.5668C54.2068 18.5749 54.2118 18.5844 54.2169 18.5939L54.236 18.6251C54.8534 19.6736 55.0287 20.8237 54.8292 21.8681C54.6285 22.9207 54.048 23.8595 53.1575 24.4759C53.1359 24.4908 53.1194 24.5016 53.1079 24.5097C53.0876 24.5233 53.113 24.5057 53.0775 24.5301C52.1641 25.1302 51.111 25.2846 50.1278 25.0205C49.1509 24.7576 48.2465 24.0844 47.624 23.0277C47.6151 23.0128 47.624 23.0277 47.6024 22.9884C47.5986 22.9817 47.5948 22.9763 47.5923 22.9695L47.5859 22.96H47.5846C45.9243 20.1436 43.4104 18.3257 40.6729 17.6375C37.9366 16.9507 34.9755 17.3923 32.4184 19.0938C32.4095 19.0992 32.4006 19.1046 32.3917 19.11L32.3638 19.129C29.8168 20.8467 28.1603 23.4992 27.5531 26.4266C26.9459 29.3554 27.3918 32.5605 29.0521 35.3769L29.0686 35.4053C29.0787 35.423 29.0673 35.4026 29.0914 35.4433C29.7139 36.4999 29.8905 37.6609 29.6885 38.7135C29.4852 39.7742 28.8971 40.7211 27.9964 41.3361C27.9787 41.3483 28.0053 41.3293 27.966 41.3564C27.9545 41.3645 27.9609 41.3591 27.9164 41.3889V41.3903C27.0081 41.9796 25.9627 42.1299 24.9883 41.8671C24.0191 41.6057 23.1235 40.9378 22.5049 39.8907C22.4998 39.8825 22.4985 39.8798 22.4706 39.8311L22.4693 39.8324C20.2463 36.0285 19.1525 31.9171 19.2351 27.9371C19.3177 24.0072 20.5448 20.2127 22.966 16.9737C23.276 16.5592 23.5326 16.3153 23.8527 16.1677C24.1677 16.0227 24.498 15.9943 24.9642 16.0078C25.8191 16.0309 26.6715 15.932 27.4997 15.6976C28.2835 15.4755 29.0432 15.13 29.7596 14.6505H29.7609ZM32.3638 13.6047C31.7743 14.3389 31.0795 14.9878 30.2779 15.5256C29.4751 16.0634 28.6252 16.4495 27.7487 16.6974C26.8341 16.9561 25.8903 17.0658 24.9439 17.0401C24.6174 17.0306 24.4002 17.0442 24.2376 17.12C24.0813 17.1918 23.9314 17.3449 23.7257 17.6185C21.4404 20.676 20.2806 24.2551 20.2031 27.9587C20.1243 31.7383 21.1698 35.6533 23.2925 39.2865L23.2912 39.2878L23.2937 39.2933C23.3026 39.3082 23.295 39.296 23.323 39.342C23.8006 40.1535 24.4866 40.6669 25.2221 40.866C25.9512 41.0625 26.7325 40.95 27.4108 40.5111V40.5125L27.4121 40.5111C27.4299 40.4989 27.407 40.5138 27.4477 40.4867C27.4693 40.4718 27.435 40.4948 27.4705 40.4705C28.1463 40.0085 28.5859 39.3027 28.737 38.5116C28.8907 37.711 28.7523 36.8196 28.2683 35.9987C28.2581 35.9811 28.2734 36.0082 28.2492 35.9689L28.2276 35.9323C26.4263 32.8748 25.9436 29.3933 26.6029 26.2085C27.2635 23.021 29.0686 20.1301 31.8417 18.2593L31.8696 18.2403C31.8798 18.2322 31.8899 18.2254 31.9001 18.2187C34.6834 16.3655 37.9074 15.8846 40.8863 16.6323C43.8639 17.3801 46.5963 19.3539 48.3976 22.4114H48.3964L48.4027 22.4236C48.4078 22.4317 48.4129 22.4398 48.418 22.4479C48.4268 22.4642 48.4141 22.4412 48.4357 22.4791C48.9185 23.2987 49.612 23.8189 50.3552 24.018C51.092 24.2158 51.8796 24.1006 52.5604 23.6536C52.5782 23.6428 52.5452 23.6631 52.5833 23.6373L52.6214 23.6116C53.2883 23.151 53.7215 22.4479 53.8714 21.6636C54.0226 20.8711 53.8854 19.9892 53.4077 19.1778L53.3938 19.1547C53.3874 19.1453 53.3798 19.1344 53.3734 19.1236C51.2253 15.508 48.371 12.8054 45.1456 11.2435C41.98 9.70998 38.4524 9.27106 34.879 10.1408C34.5589 10.2193 34.3645 10.2965 34.2362 10.4171C34.1066 10.5377 34.0012 10.7409 33.8665 11.0606C33.4778 11.9804 32.9761 12.8393 32.3587 13.6087L32.3638 13.6047Z" class="s-BhKJMyTvHb45"/><defs class="s-BhKJMyTvHb45"><radialGradient id="paint0_angular_5_28" cx="0" cy="0" r="1" class="s-BhKJMyTvHb45" gradientTransform="translate(15 50) scale(60)" gradientUnits="userSpaceOnUse"><stop class="s-BhKJMyTvHb45" stop-color="#D65FC2"/><stop class="s-BhKJMyTvHb45" offset="16%" stop-color="#E94C9B"/><stop class="s-BhKJMyTvHb45" offset="30%" stop-color="#F24671"/><stop class="s-BhKJMyTvHb45" offset="45%" stop-color="#FD576B"/><stop class="s-BhKJMyTvHb45" offset="60%" stop-color="#FF5A54"/><stop class="s-BhKJMyTvHb45" offset="72%" stop-color="#FF7449"/><stop class="s-BhKJMyTvHb45" offset="85%" stop-color="#FF9845"/><stop class="s-BhKJMyTvHb45" offset="100%" stop-color="#FFB033"/></radialGradient></defs></svg>