<?xml version="1.0" standalone="no"?>
<!DOCTYPE svg PUBLIC "-//W3C//DTD SVG 20010904//EN"
 "http://www.w3.org/TR/2001/REC-SVG-20010904/DTD/svg10.dtd">
<svg version="1.0" xmlns="http://www.w3.org/2000/svg"
 width="700.000000pt" height="700.000000pt" viewBox="0 0 700.000000 700.000000"
 preserveAspectRatio="xMidYMid meet">
<metadata>
Created by potrace 1.14, written by Peter Selinger 2001-2017
</metadata>
<g transform="translate(0.000000,700.000000) scale(0.100000,-0.100000)"
fill="#000000" stroke="none">
<path d="M2408 6965 c-2 -2 -30 -5 -63 -8 -119 -11 -236 -64 -333 -153 -139
-127 -212 -286 -218 -479 -7 -206 58 -370 200 -510 228 -226 582 -232 819 -15
102 93 181 235 206 370 18 97 7 254 -23 345 -70 207 -220 361 -406 418 -49 15
-176 37 -182 32z"/>
<path d="M3509 6176 c-2 -2 -30 -6 -61 -10 -77 -8 -197 -35 -230 -52 -42 -22
-62 -48 -108 -142 -56 -113 -107 -188 -178 -259 -148 -149 -323 -220 -556
-227 -102 -4 -110 -5 -144 -33 -91 -73 -255 -359 -320 -559 -30 -89 -65 -236
-77 -324 -11 -76 -14 -411 -4 -475 21 -134 17 -114 40 -225 43 -207 183 -542
285 -682 109 -148 293 -199 447 -123 135 67 219 218 210 380 -4 76 -15 109
-74 225 -45 89 -98 204 -98 215 0 3 -7 29 -16 58 -36 123 -51 364 -31 487 40
247 140 452 303 618 148 151 296 237 498 288 74 19 287 26 375 12 159 -25 343
-111 478 -222 97 -80 170 -166 262 -309 99 -156 253 -223 413 -181 149 39 264
194 269 360 3 117 -28 199 -137 360 -283 416 -680 704 -1087 788 -40 8 -86 18
-103 21 -34 8 -349 18 -356 11z"/>
<path d="M696 3979 c-61 -15 -143 -66 -184 -115 -105 -126 -253 -439 -313
-664 -7 -25 -14 -49 -15 -55 -8 -25 -43 -236 -48 -290 -7 -65 -8 -302 -2 -350
3 -16 7 -52 10 -80 26 -231 133 -519 272 -733 86 -134 111 -150 238 -158 116
-6 159 -14 240 -40 213 -70 380 -229 481 -458 58 -131 97 -162 236 -192 136
-28 208 -36 334 -37 423 -3 837 182 1175 524 36 37 74 78 85 91 209 249 284
392 279 530 -6 153 -86 283 -214 346 -48 24 -66 27 -150 26 -76 0 -104 -5
-141 -22 -69 -33 -133 -94 -201 -195 -204 -299 -513 -475 -842 -479 -163 -2
-308 31 -451 104 -297 150 -499 422 -572 772 -18 87 -23 303 -10 391 26 167
92 342 182 486 71 111 77 288 14 411 -30 59 -111 135 -174 164 -62 29 -166 39
-229 23z"/>
<path d="M4117 3884 c-1 -1 -39 -5 -84 -8 -46 -4 -91 -9 -100 -10 -10 -2 -38
-7 -63 -11 -25 -4 -55 -9 -66 -11 -63 -11 -199 -57 -232 -78 -94 -61 -151
-140 -176 -244 -39 -168 22 -331 160 -424 100 -68 179 -75 369 -34 101 22 139
25 240 22 144 -5 162 -8 287 -47 314 -99 582 -378 676 -704 42 -147 47 -180
47 -345 0 -169 -10 -235 -55 -370 -108 -327 -375 -592 -700 -694 -115 -37
-174 -71 -231 -135 -71 -79 -94 -143 -94 -261 0 -123 28 -199 100 -275 110
-115 234 -142 410 -90 689 202 1182 743 1300 1425 8 47 17 124 20 171 6 103
-7 135 -96 226 -71 74 -118 140 -162 228 -51 103 -66 156 -83 281 -14 110 -5
231 27 344 43 156 37 198 -44 319 -108 160 -259 316 -412 426 -189 136 -488
256 -695 280 -122 14 -334 26 -343 19z"/>
<path d="M6250 3253 c-44 -7 -154 -46 -200 -71 -101 -56 -196 -156 -257 -272
-139 -266 -86 -592 129 -802 191 -187 474 -225 707 -95 150 83 289 283 317
458 55 344 -127 660 -438 759 -62 20 -196 32 -258 23z"/>
<path d="M540 1365 c-179 -44 -331 -167 -414 -337 -138 -283 -75 -616 156
-822 35 -31 67 -56 71 -56 5 0 21 -8 35 -19 27 -18 132 -55 187 -66 17 -3 63
-6 103 -6 236 1 444 142 552 374 85 181 78 427 -16 605 -42 79 -103 156 -156
197 -21 17 -44 35 -51 41 -28 24 -138 74 -202 91 -45 12 -213 10 -265 -2z"/>
</g>
</svg>
